<?xml version="1.0" encoding="utf-8"?>
<!-- Generator: Adobe Adobe Illustrator 24.2.0, SVG Export Plug-In . SVG Version: 6.00 Build 0)  -->
<svg version="1.1" xmlns="http://www.w3.org/2000/svg" xmlns:xlink="http://www.w3.org/1999/xlink" x="0px" y="0px"
	 width="595.28px" height="841.89px" viewBox="0 0 595.28 841.89" style="enable-background:new 0 0 595.28 841.89;"
	 xml:space="preserve">
<style type="text/css">
	.st0{fill:#EBC667;stroke:#000000;stroke-miterlimit:10;}
	.st1{fill:#EBC666;stroke:#000000;stroke-miterlimit:10;}
	.st2{fill:none;stroke:#000000;stroke-miterlimit:10;}
	.st3{fill:#3C058C;stroke:#000000;stroke-miterlimit:10;}
	.st4{fill:#ECC768;stroke:#000000;stroke-miterlimit:10;}
	.st5{stroke:#000000;stroke-miterlimit:10;}
	.st6{fill:#ECC768;stroke:#23221A;stroke-miterlimit:10;}
	.st7{fill:none;stroke:#23221A;stroke-miterlimit:10;}
	.st8{fill:#3C058C;stroke:#23221A;stroke-miterlimit:10;}
	.st9{fill:#614E39;stroke:#000000;stroke-miterlimit:10;}
	.st10{fill:#614E39;}
</style>
<g id="Ebene_1">
	<g>
		<g id="Bauch">
			<path class="st0" d="M248.18,390.49c-7.32,6.33-8.28,15.7-9.31,25.25c-1.03,9.56-1.65,18.54-2.86,28.08
				c-1.2,9.48-0.91,19.96,1.18,29.32c0.88,3.94,2.91,8.03,6.97,9.95c2.09,0.99,4.5,1.3,6.86,1.59c13.87,1.74,27.75,0.95,41.77,0.95
				c6.65,0,10.3,0.13,15.27-0.11c1.82-0.09,5.47-0.14,7.29-0.14c2.4,0,4.18,0.1,6.85,0.1c7.53,0,11.71,0.64,17.88-0.23
				c1.9-0.27,4.13-1.16,5.6-2.06c2.94-1.81,6.05-3.38,7.55-6.22c3.2-6.07,3.03-13.01,2.8-19.67c-0.57-16.49-1.14-33.05-4.44-49.3
				c-1.17-5.78-1.6-13.42-7.29-16.62c-4.52-2.55-11.83-2.8-17.23-2.8c-12.54,0-21.39,0.49-33.12,0.49c-7.29,0-14.45-0.44-21.73-0.2
				c-3.38,0.11-8.78,0.08-12.14,0.38C256.73,389.56,252.89,389.3,248.18,390.49z"/>
		</g>
	</g>
	<g>
		<g id="Bein_1_">
			<path class="st1" d="M317.35,483.97c4.64,0.07,9.28,0.14,13.92,0.21c-0.76,7.78-1.52,15.56-2.61,23.31
				c-0.39,2.75-1.2,5.96-4.13,7.08c-2.87,1.1-6.35-0.62-7.78-3.04c-1.43-2.42-1.32-5.28-1.08-7.99
				C316.24,497.18,317.42,490.88,317.35,483.97z"/>
		</g>
	</g>
	<g>
		<g id="Bein_2_">
			<path class="st1" d="M256.95,483.97c4.64,0.07,9.28,0.14,13.92,0.21c-0.76,7.78-1.52,15.56-2.61,23.31
				c-0.39,2.75-1.2,5.96-4.13,7.08c-2.87,1.1-6.35-0.62-7.78-3.04c-1.43-2.42-1.32-5.28-1.08-7.99
				C255.84,497.18,257.02,490.88,256.95,483.97z"/>
		</g>
	</g>
	<g>
		<g id="Hand_2">
			<path class="st0" d="M245.22,424.43c2.49,1.81,8,6.08,8.72,6.66c0.71,0.56,2.28,1.82,1.54,2.6c-5.71,5.99-9.94,11.42-15.65,17.41
				c-5.15,5.4-12.34,11.43-18.58,15.88s-10.61,11.94-18.65,12.74c-1.21,0.12-5.29-2.29-5.65-3.2c-0.39-0.99-0.27-3.45,0.45-4.47
				c1.94-2.76,4.21-3.56,7.69-4.74c-4.11,1.45-6.54,3.69-10.7,2.34c-3.61-1.17-4.12-4.82-1.94-7.57s6.71-2.3,10.36-2.78
				c-2.88,0.56-6.48,0.16-9.33-0.48c-3.24-0.74-5.08-4.72-4.34-6.57c0.59-1.48,1.48-2.11,2.57-2.9c1.71-1.24,3.63-1.54,5.82-1.92
				s4.67,0.06,6.17,1.5c-0.85-2.28-0.88-4.89,0.46-6.98c1.34-2.1,4.24-3.51,6.94-2.99c2.51,0.48,4.34,2.46,5.1,4.59
				c0.75,2.13,0.63,4.4,0.49,6.62C226.17,441.13,236.07,432.42,245.22,424.43z"/>
		</g>
	</g>
	<g>
		<g id="Hand">
			<path class="st0" d="M347.01,436.23c2.3-1.99,7.69-6.37,8.41-6.94c0.71-0.56,2.29-1.81,3.12-1.1c6.4,5.44,12.3,9.55,18.7,14.99
				c5.77,4.9,12.1,11.62,16.69,17.38c4.59,5.77,12.84,10.17,13.07,17.17c0.03,1.05-3.1,4.37-4.17,4.59c-1.17,0.25-4-0.07-5.11-0.77
				c-3.01-1.91-3.74-3.94-4.8-7.03c1.32,3.67,3.68,5.96,1.77,9.43c-1.66,3.01-5.9,3.13-8.88,1.02c-2.98-2.12-2.07-5.98-2.31-9.17
				c0.4,2.53-0.37,5.6-1.36,8c-1.13,2.73-5.87,3.97-7.94,3.18c-1.65-0.64-2.3-1.46-3.12-2.47c-1.29-1.58-1.46-3.26-1.71-5.18
				c-0.25-1.92,0.47-4.02,2.26-5.19c-2.7,0.54-5.7,0.34-8-1s-3.68-3.95-2.85-6.24c0.77-2.12,3.21-3.53,5.72-4s5.12-0.16,7.66,0.15
				C364.6,454.08,355.43,444.8,347.01,436.23z"/>
		</g>
	</g>
	<g>
		<g id="Kleidung">
			<path class="st2" d="M271.26,389.15c-0.13,3.59-0.26,7.19,0.26,10.75c0.47,3.24,1.47,6.41,2.47,9.57
				c1.8,5.69,3.74,11.62,8.36,15.95c2.78,2.61,6.5,4.61,8.25,7.83"/>
			<path class="st2" d="M311.4,389.2c-0.15,4.5-0.3,8.99-0.45,13.49c-0.28,8.55-0.93,17.9-7.6,24.21c-2.89,2.73-6.67,4.62-10.43,6.4
				c-1.37,0.65-2.78,1.32-3.74,2.37c-0.69,0.75-1.11,1.66-1.4,2.59c-1.03,3.29-0.4,6.94,1.69,9.83c0.77,1.06,1.91,2.1,3.35,2.14
				c0.8,0.02,1.57-0.27,2.22-0.68c3.17-2,3.14-6.24,1.42-9.3c-1.72-3.05-4.69-5.45-6.74-8.34"/>
			<path class="st3" d="M236.16,467.46c39.22-3.78,80.76-4.49,120.39-1.54c-0.28,2.92-1.16,6.11-1.97,8.87
				c-0.32,1.08-1.04,2.7-1.61,3.38c-1.16,1.38-2.73,2.8-4.24,3.9c-2.23,1.61-5.79,2.45-8.37,3.14c-9.45,2.53-19.89,0.6-29.79,0.6
				c-12.69,0-26.68,0.65-39.56-0.01c-7.15-0.37-15.99,0.98-22.92-0.58c-1.91-0.43-4.44-1.77-6.1-2.69
				C237.08,479.84,236.49,472.24,236.16,467.46z"/>
		</g>
	</g>
	<g>
		<g id="Kopf">
			<path class="st4" d="M237.31,332.86c-0.1,1.47-1.96,2.32-3.43,1.58c-4.48-2.25-10.3-2.6-14.93-0.52
				c-6.46,2.89-8.27,7.02-5.9,12.97c1.73,4.35,7.07,8.83,11.83,6.76c4.12-1.79,8.62-5.54,13.02-6.71c0.7,6.4-0.95,10.56-0.23,17.15
				c0.62,5.69,1.54,10.77,8.16,10.53c2.99-0.11,5.99-0.2,8.99-0.19c10.06,0.02,19.75-1.26,29.59-1.26c1.93,0,4.68-0.26,6.39-0.26
				c1.44,0,2.41,0.02,3.93-0.09c2.27-0.17,2.48,0.09,4.75-0.04c2.68-0.15,5.24,0.25,7.87,0.1c16.15-0.92,33.5,2.35,49.74-2.6
				c1.05-0.32,3.71-5.4,3.75-6.33c0.83-17.08-0.16-37.71-2.77-56.89c-0.36-2.65-1.01-10.69-2.51-13.03
				c-2.22-3.45-5.9-3.46-12.01-3.46c-20.74,0-40.33-0.41-61.26,0.17c-8.14,0.22-19.4,0.75-29.34,1.29c-1.38,0.08-3.2,0.27-4.58,0.34
				c-10.03,0.55-8.36,4.59-8.55,8.61c-0.62,7.56-0.75,13.14-2.02,20.19C237.78,326.03,237.59,328.95,237.31,332.86z"/>
		</g>
	</g>
	<g>
		<g id="Kopfbedeckung">
			<path class="st6" d="M350.24,290.89c0.65-11.21-0.47-22.77,1.74-33.83c0.18-0.9,0.31-2.11,0.37-2.88
				c0.16-2.04,0.91-5.95-1.03-6.38c-2.01-0.44-4.47-0.75-6.46-0.96c-5-0.52-7.25-0.86-12.87-0.82c-2.73,0.02-7.61-0.87-9.79-0.71
				c-1.02,0.08-6.5-0.33-7.76-0.33c-9.45,0-15.76-0.2-23.45-0.2c-9.21,0-19.31,0.61-27.87,1.65c-8.2,0.99-19.19,2.52-25.71,5.76
				c-0.21,9.82,0.12,19.64,0.99,29.43c0.28,3.13,0.7,6.46,3.71,8.48c-0.3,1.07-0.2,2.23,0.29,3.25c-0.27-0.61-0.41-1.27-0.43-1.92
				c0.04,0.24,0.23,0.45,0.49,0.54c0.08,0.11,0.06,0.26-0.03,0.35"/>
			<path class="st6" d="M238.55,346.33c-0.18,18.3-2.49,38.18-5.08,56.35c-0.26,1.83-0.66,3.87-2.36,4.98
				c-1.12,0.73-2.57,0.91-3.97,1.05c-9.55,0.94-19.23,0.95-28.79,0.02c-4.81-9.42-4.79-20.08-4.69-30.38
				c0.06-6.34,0.13-12.68,0.19-19.02c0.07-7.01,0.14-14.04,1.1-21.01c1.07-7.79,3.24-15.42,5.54-23.01
				c6.64-21.85,15.03-44.28,33.03-60.65c1.8-1.64,4.56-3.31,6.78-2.13c1.6,0.85,1.89,2.72,2.03,4.34
				c0.98,11.86,1.96,23.73,2.33,36.01c-1.89,0.63-2.31,0.78-3.11,2.24c-0.81,1.45-0.72,3.56-0.82,5.17
				c-0.73,11.25-2.13,23.31-2.87,34.56c-5.72-1.38-10.15-2.7-14.97-2.39c-3.16,0.2-5.59,1.36-7.66,3.44
				c-1.92,1.93-3.12,3.92-2.66,6.44c0.85,4.69,4.3,10.98,9.79,11.15c4.54,0.14,8.73-4.66,13.86-6.73
				C237.23,346.28,238.88,346.24,238.55,346.33z"/>
			<path class="st6" d="M360.95,373.11c0.18,18.3,0.25,7.93,0.44,26.96c0.02,1.85,0.67,3.96,2.37,5.07
				c1.12,0.73,2.57,0.91,3.97,1.05c9.55,0.94,19.23,0.95,28.79,0.02c4.81-9.42,4.79-20.08,4.69-30.38
				c-0.06-6.34-0.13-12.68-0.19-19.02c-0.07-7.01-0.14-14.04-1.1-21.01c-1.07-7.79-3.24-15.42-5.54-23.01
				c-6.64-21.85-15.03-44.28-33.03-60.65c-1.8-1.64-9.95-5.94-9.44-3.72c0.21,0.94,1,2.38,0.74,3.99
				c-1.77,10.77-1.98,25.5-2.35,37.78c1.86-0.08,4.24,1.02,5.04,2.47c0.81,1.45,1.14,3.81,1.24,5.42c0.73,11.25,3.5,22.5,4.23,33.75
				c0.39,2.43,0.29,4.32,0.49,7.49c0.18,2.74-0.01,3.71-0.01,3.71s0.1,1.76,0.1,4.3c0,4.65,0,1.34,0,4.51
				c0,4.75-0.1,9.63-0.43,11.98C360.5,364.69,360.62,373.02,360.95,373.11z"/>
			<path class="st7" d="M244.57,292.91c24.69-4.39,49.99-2.25,75.17-3.28c10.16-0.41,21.04,0.22,30.96,0.57"/>
			<path class="st8" d="M355.01,292.96c7.8-6.46,15.61-12.92,23.41-19.38"/>
			<path class="st8" d="M355.01,292.06c1.63,3.34,2.21,11.42,2.21,11.42s0.04,2.41,0.41,3.86c0.34,1.37,0.27,2.84,0.4,4.25
				c0.17-0.01,0.01-0.11,0.19-0.12c7.86-3.3,16.63-6.51,24.6-9.81c2.37-0.98,4.76-1.96,7.33-2.36c-1.91-7.66-4.28-15.49-8.97-22.19
				c-0.68-0.97-1.83-2.6-2.9-3.52"/>
			<path class="st8" d="M360.71,336.35c12.57-3.59,25.02-7.5,37.33-11.71"/>
			<path class="st8" d="M397.64,323.84c1.03,3.82,1.84,7.69,2.65,11.55c0.46,2.19,0.91,4.38,1.09,6.6c0.21,2.57,0.03,5.15-0.14,7.72
				c-13.25,1.03-26.84,3.29-39.91,7.18c-0.19-7.23-0.04-14.54-0.22-21.4"/>
			<path class="st8" d="M360.62,375.92c13.36-2.9,27.06-4.58,40.83-5.02"/>
			<path class="st8" d="M401.13,370.07c0.81,5.89,1.21,11.83,1.19,17.76c-13.17,1.17-27.2,3.42-40.33,6.15
				c-0.23,0.13,0.17-0.16,0-0.34c-0.16-0.19-0.6,0.72-0.63,0.48c-0.45-3.66-0.58-7.09-0.75-10.76c-0.06-1.36-0.15-3.91,0-5.39
				c0.11-1.08,0.51-2.51,0.36-3.59"/>
			<path class="st8" d="M344.53,289.42c-7.96-0.19-11.85,0.66-19.78,0.09c-2.19-14.79-2.22-30.53-0.87-45.25
				c2.53,0,5.37-0.2,8.01-0.01c3.54,0.25,6.69,0.43,10.24,0.42s8.25-0.28,11.46,1.76c0.43,5.03-0.57,10.89-1.36,15.88
				c-0.42,2.64-1.01,5.26-1.32,7.91c-0.52,4.42-0.28,8.88-0.04,13.32c0.1,1.82-0.27,4.85-0.17,6.67
				C349.16,290.09,345.01,289.43,344.53,289.42z"/>
			<path class="st8" d="M295.99,289.79c-2.82-14.79-4.47-29.75-4.94-44.74"/>
			<path class="st8" d="M292.04,244.63c-1.51-0.05-3.13-0.11-4.65-0.16c-0.91-0.03-1.82-0.07-2.73-0.04
				c-1.32,0.03-3.14-0.26-4.45-0.15c-3.78,0.31-7.59,0.25-11.38,0.45s-7.11,1.12-10.59,2.43c0.33,14.51,5.65,28.75,8.81,43.31
				c10.45,0.43,20.06-0.03,30.34-0.47"/>
			<path class="st7" d="M240.94,295.79c-9.63-3.27-18.83-7.34-29.18-9.8c-0.17-0.04-0.4-0.05-0.43-0.2s0.35-0.14,0.24-0.02"/>
			<path class="st8" d="M211.34,285.78c5.47-11,11.75-23.47,22.18-31.98c1.59-1.3,3.85-1.9,5.73-2.43c1.14,0.3,2.43,1.82,2.78,2.8
				s0.32,2.03,0.34,3.07c0.08,6.53,1.66,12.97,2.27,19.47c0.5,5.37,0.34,10.78,0.18,16.16c-0.01,0.31-0.43,0.34-0.72,0.49
				c-0.51,0.26-0.95,0.5-1.25,0.76c-0.93,0.81-1.42,1.65-1.88,2.67"/>
			<path class="st8" d="M196.96,327.98c0.44-0.5,6.71-23.81,7.44-23.76c7.74,0.45,24.87,1.42,35.82,2.91
				c-0.3,6.74-1,13.75-1.8,20.35c-0.05,0.44,0.08,1.8-0.18,2.18"/>
			<path class="st8" d="M238.85,328.85c-8.45-0.78-17.38-0.6-25.87-0.9c-5.36-0.19-11.86,0.59-17.03-0.08"/>
			<path class="st7" d="M237.22,365.75c-11.8-0.23-23.61,0.03-35.41,0.28c-2.77,0.06-5.55,0.12-8.32,0.18"/>
			<path class="st8" d="M235.29,389.16c-13.96-0.35-28.48,0.51-42.34,2.03c0,0,0.36-8.76,0.34-8.5c-0.02-5.99-0.03-11.97,0.06-18
				c14.84-0.06,29.67-0.13,44.36-0.81c0.39,6.55-1.51,12.89-1.74,19.45c-0.07,1.9-0.26,3.43-0.67,5.71
				C235.24,389.36,235.32,389.75,235.29,389.16z"/>
		</g>
	</g>
	<g>
		<g id="Braue">
			<path class="st9" d="M294,304.19c0.86-1.78,1.26-3.73,1.18-5.66c-7.05-0.49-14.12-0.82-21.2-0.99c-3.39-0.08-6.94-0.01-10.32,0.2
				c-2.65,0.16-5.42-0.25-8.18,1.04c0.19,1.53,0.29,5.3,1.31,5.9c0.38,0.22,2.52,0.51,2.98,0.51c4.94,0.01,9.76-1.39,14.69-1.67
				c2.72-0.16,5.01-0.24,7.72-0.06C286.42,303.74,290.39,303.95,294,304.19z"/>
		</g>
	</g>
	<g>
		<g id="Braue_2">
			<path class="st9" d="M306.98,304.19c-0.86-1.78-1.26-3.73-1.18-5.66c7.05-0.49,14.12-0.82,21.2-0.99
				c3.39-0.08,6.94-0.01,10.32,0.2c2.65,0.16,5.42-0.25,8.18,1.04c-0.19,1.53-0.29,5.3-1.31,5.9c-0.38,0.22-2.52,0.51-2.98,0.51
				c-4.94,0.01-9.76-1.39-14.69-1.67c-2.72-0.16-5.01-0.24-7.72-0.06C314.56,303.74,310.59,303.95,306.98,304.19z"/>
		</g>
	</g>
	<g>
		<g id="Auge">
			<ellipse class="st2" cx="321.84" cy="323.65" rx="7.93" ry="13.28"/>
			<ellipse class="st2" cx="320.81" cy="327.52" rx="1.79" ry="3.54"/>
		</g>
		<g>
			<path class="st10" d="M314.64,319.42c1.86-1.66,3.99-3.24,6.57-3.52c2.6-0.28,5.71,1.25,7.74,2.67c0.03-1-0.64-2.83-1.15-3.66
				c-0.67-1.09-1.41-2.46-2.46-3.16c-1.45-0.98-3.83-1.71-5.47-0.97c-1.94,0.88-3.95,3.32-4.64,5.12c-0.41,1.06-0.65,2.36-0.91,3.45
				"/>
			<g>
				<path d="M315.12,319.51c1.83-1.62,4.04-3.32,6.59-3.44c2.42-0.11,4.88,1.23,6.81,2.55c0.13,0.09,0.94,0.29,0.94-0.02
					c0-1.48-0.7-2.96-1.45-4.19c-0.91-1.49-1.84-2.71-3.48-3.43c-1.43-0.63-3.21-1.01-4.74-0.48c-1.57,0.55-2.89,1.93-3.85,3.23
					c-1.24,1.69-1.63,3.57-2.11,5.57c-0.06,0.24,0.92,0.39,1,0.09c0.25-1.03,0.44-2.07,0.78-3.07c0.3-0.9,0.78-1.71,1.34-2.47
					c1.09-1.46,2.76-3.26,4.74-3.17c1,0.04,1.99,0.4,2.85,0.9c0.91,0.52,1.52,1.32,2.08,2.19c0.9,1.41,1.84,3.03,1.84,4.75
					c0.31-0.01,0.62-0.01,0.94-0.02c-2.24-1.54-4.95-2.87-7.73-2.84c-2.92,0.03-5.4,1.79-7.5,3.66
					C314,319.47,314.89,319.72,315.12,319.51L315.12,319.51z"/>
			</g>
		</g>
		<g>
			<g>
				<path d="M314.72,319.89c2.08-2.02,4.94-3.91,7.96-3.77c1.18,0.05,2.44,0.38,3.54,0.79c1.13,0.42,1.9,1.15,2.56,2.14
					c0.17,0.25,1.11,0.19,0.97-0.02c-0.71-1.06-1.56-1.85-2.76-2.32c-1.33-0.53-2.85-0.9-4.28-0.98c-3.42-0.18-6.56,1.67-8.95,3.98
					C313.6,319.86,314.5,320.1,314.72,319.89L314.72,319.89z"/>
			</g>
		</g>
		<g>
			<g>
				<path d="M320.24,324.73c-0.63,0.61-1.04,1.38-1.14,2.26c-0.09,0.79,0.06,1.59,0.23,2.36c0.12,0.56,0.29,1.19,0.86,1.45
					c0.62,0.28,1.5,0.15,1.85-0.48c0.32-0.55,0.34-1.25,0.33-1.87c-0.01-0.64-0.03-1.28-0.03-1.92c-0.01-0.77-0.08-1.78-0.81-2.24
					c-0.34-0.21-0.89-0.29-1.24-0.07c-0.35,0.21-0.48,0.71-0.55,1.08c-0.18,0.91-0.09,1.89-0.04,2.81c0.04,0.7,0.1,1.71,0.74,2.15
					c0.19,0.13,0.82,0.28,0.94-0.02c0.69-1.76-0.55-3.71,0.23-5.44c-0.32-0.05-0.65-0.09-0.97-0.14c-0.11,0.44-0.05,0.89-0.01,1.34
					c0.04,0.51,0.01,1.02-0.01,1.53c-0.02,0.51-0.04,1.01-0.04,1.52c0,0.49-0.01,0.96-0.19,1.43c0.29-0.02,0.58-0.04,0.86-0.07
					c0.05,0.03,0.03-0.12,0.03-0.14c0-0.3-0.99-0.36-1-0.09c0,0.23,0.04,0.32,0.24,0.45c0.18,0.12,0.76,0.19,0.86-0.07
					c0.18-0.44,0.19-0.9,0.19-1.37c0-0.53,0.02-1.05,0.04-1.58c0.02-0.49,0.05-0.99,0.02-1.48c-0.03-0.47-0.11-0.93,0.01-1.39
					c0.06-0.25-0.88-0.36-0.97-0.14c-0.8,1.78,0.43,3.75-0.27,5.55c0.31-0.01,0.62-0.01,0.94-0.02c-0.48-0.33-0.55-1.09-0.6-1.62
					c-0.06-0.62-0.08-1.26-0.08-1.89c0-0.35,0.01-0.71,0.06-1.06c0.03-0.18,0.06-0.36,0.12-0.53c0.03-0.1,0.07-0.19,0.11-0.28
					c0.04-0.08,0.17-0.19,0.2-0.26c-0.12,0-0.25,0-0.37-0.01c0.06,0.05,0.11,0.1,0.16,0.16c0.05,0.06,0.09,0.13,0.13,0.19
					c0.07,0.12,0.12,0.24,0.15,0.37c0.11,0.37,0.13,0.76,0.14,1.14c0.01,0.54,0,1.09,0.03,1.63c0.02,0.53,0.03,1.07-0.08,1.59
					c-0.05,0.24-0.12,0.47-0.27,0.67c-0.06,0.08-0.13,0.16-0.22,0.21c-0.02,0.01-0.04,0.02-0.06,0.04
					c-0.21,0.15,0.16-0.12,0.14,0.06c0,0.01-0.18-0.17-0.2-0.19c-0.07-0.1-0.12-0.21-0.17-0.32c-0.1-0.23-0.16-0.48-0.21-0.73
					c-0.15-0.72-0.28-1.46-0.21-2.2c0.08-0.87,0.47-1.6,1.1-2.2c0.15-0.14-0.26-0.26-0.33-0.28
					C320.67,324.6,320.39,324.58,320.24,324.73L320.24,324.73z"/>
			</g>
		</g>
	</g>
	<g>
		<g id="Auge_1_">
			<ellipse class="st2" cx="271.42" cy="323.65" rx="7.93" ry="13.28"/>
			<ellipse class="st2" cx="270.39" cy="327.52" rx="1.79" ry="3.54"/>
		</g>
		<g>
			<path class="st10" d="M264.23,319.42c1.86-1.66,3.99-3.24,6.57-3.52c2.6-0.28,5.71,1.25,7.74,2.67c0.03-1-0.64-2.83-1.15-3.66
				c-0.67-1.09-1.41-2.46-2.46-3.16c-1.45-0.98-3.83-1.71-5.47-0.97c-1.94,0.88-3.95,3.32-4.64,5.12c-0.41,1.06-0.65,2.36-0.91,3.45
				"/>
			<g>
				<path d="M264.7,319.51c1.83-1.62,4.04-3.32,6.59-3.44c2.42-0.11,4.88,1.23,6.81,2.55c0.13,0.09,0.94,0.29,0.94-0.02
					c0-1.48-0.7-2.96-1.45-4.19c-0.91-1.49-1.84-2.71-3.48-3.43c-1.43-0.63-3.21-1.01-4.74-0.48c-1.57,0.55-2.89,1.93-3.85,3.23
					c-1.24,1.69-1.63,3.57-2.11,5.57c-0.06,0.24,0.92,0.39,1,0.09c0.25-1.03,0.44-2.07,0.78-3.07c0.3-0.9,0.78-1.71,1.34-2.47
					c1.09-1.46,2.76-3.26,4.74-3.17c1,0.04,1.99,0.4,2.85,0.9c0.91,0.52,1.52,1.32,2.08,2.19c0.9,1.41,1.84,3.03,1.84,4.75
					c0.31-0.01,0.62-0.01,0.94-0.02c-2.24-1.54-4.95-2.87-7.73-2.84c-2.92,0.03-5.4,1.79-7.5,3.66
					C263.58,319.47,264.47,319.72,264.7,319.51L264.7,319.51z"/>
			</g>
		</g>
		<g>
			<g>
				<path d="M264.31,319.89c2.08-2.02,4.94-3.91,7.96-3.77c1.18,0.05,2.44,0.38,3.54,0.79c1.13,0.42,1.9,1.15,2.56,2.14
					c0.17,0.25,1.11,0.19,0.97-0.02c-0.71-1.06-1.56-1.85-2.76-2.32c-1.33-0.53-2.85-0.9-4.28-0.98c-3.42-0.18-6.56,1.67-8.95,3.98
					C263.19,319.86,264.09,320.1,264.31,319.89L264.31,319.89z"/>
			</g>
		</g>
		<g>
			<g>
				<path d="M269.82,324.73c-0.63,0.61-1.04,1.38-1.14,2.26c-0.09,0.79,0.06,1.59,0.23,2.36c0.12,0.56,0.29,1.19,0.86,1.45
					c0.62,0.28,1.5,0.15,1.85-0.48c0.32-0.55,0.34-1.25,0.33-1.87c-0.01-0.64-0.03-1.28-0.03-1.92c-0.01-0.77-0.08-1.78-0.81-2.24
					c-0.34-0.21-0.89-0.29-1.24-0.07c-0.35,0.21-0.48,0.71-0.55,1.08c-0.18,0.91-0.09,1.89-0.04,2.81c0.04,0.7,0.1,1.71,0.74,2.15
					c0.19,0.13,0.82,0.28,0.94-0.02c0.69-1.76-0.55-3.71,0.23-5.44c-0.32-0.05-0.65-0.09-0.97-0.14c-0.11,0.44-0.05,0.89-0.01,1.34
					c0.04,0.51,0.01,1.02-0.01,1.53c-0.02,0.51-0.04,1.01-0.04,1.52c0,0.49-0.01,0.96-0.19,1.43c0.29-0.02,0.58-0.04,0.86-0.07
					c0.05,0.03,0.03-0.12,0.03-0.14c0-0.3-0.99-0.36-1-0.09c0,0.23,0.04,0.32,0.24,0.45c0.18,0.12,0.76,0.19,0.86-0.07
					c0.18-0.44,0.19-0.9,0.19-1.37c0-0.53,0.02-1.05,0.04-1.58c0.02-0.49,0.05-0.99,0.02-1.48c-0.03-0.47-0.11-0.93,0.01-1.39
					c0.06-0.25-0.88-0.36-0.97-0.14c-0.8,1.78,0.43,3.75-0.27,5.55c0.31-0.01,0.62-0.01,0.94-0.02c-0.48-0.33-0.55-1.09-0.6-1.62
					c-0.06-0.62-0.08-1.26-0.08-1.89c0-0.35,0.01-0.71,0.06-1.06c0.03-0.18,0.06-0.36,0.12-0.53c0.03-0.1,0.07-0.19,0.11-0.28
					c0.04-0.08,0.17-0.19,0.2-0.26c-0.12,0-0.25,0-0.37-0.01c0.06,0.05,0.11,0.1,0.16,0.16c0.05,0.06,0.09,0.13,0.13,0.19
					c0.07,0.12,0.12,0.24,0.15,0.37c0.11,0.37,0.13,0.76,0.14,1.14c0.01,0.54,0,1.09,0.03,1.63c0.02,0.53,0.03,1.07-0.08,1.59
					c-0.05,0.24-0.12,0.47-0.27,0.67c-0.06,0.08-0.13,0.16-0.22,0.21c-0.02,0.01-0.04,0.02-0.06,0.04
					c-0.21,0.15,0.16-0.12,0.14,0.06c0,0.01-0.18-0.17-0.2-0.19c-0.07-0.1-0.12-0.21-0.17-0.32c-0.1-0.23-0.16-0.48-0.21-0.73
					c-0.15-0.72-0.28-1.46-0.21-2.2c0.08-0.87,0.47-1.6,1.1-2.2c0.15-0.14-0.26-0.26-0.33-0.28
					C270.26,324.6,269.97,324.58,269.82,324.73L269.82,324.73z"/>
			</g>
		</g>
	</g>
</g>
<g id="Ebene_2">
	<g>
		<path class="st10" d="M296.75,356.86c11.98,0,24.3,1.05,35.18-5.5c3.64-2.19,7.08-5.26,9.52-9c1.13-1.73,1.97-3.59,2.81-5.51
			c0.94-2.16,1.28-2.3-0.22-3.77c-0.87-0.86-2.76-1.95-0.93-3.54c1.24-1.09,4.17,0.86,5.47,1.62c1.24,0.72,3.32,1.99,3.36,3.71
			c0.07,2.85-1.82,1.82-3.05,1.78c-1.25-0.04-0.48-0.33-1.48,0.79c-0.81,0.91-1.67,2.34-2.38,3.39c-1.6,2.37-2.94,4.92-4.58,7.26
			c-3.03,4.32-7.15,6.69-11.75,8.39c-6.29,2.33-33.79,4.57-32.05,0.48"/>
		<g>
			<path d="M296.87,357.06c12.42,0.01,25.63,0.92,36.52-6.21c2.59-1.7,4.95-3.77,6.91-6.17c2.09-2.56,3.42-5.47,4.76-8.46
				c0.33-0.74,0.74-1.49,0.27-2.25c-0.57-0.91-1.6-1.41-2.2-2.29c-0.71-1.03,0.25-2.48,1.48-2.21c1.11,0.25,2.14,0.91,3.11,1.49
				c0.98,0.59,2,1.14,2.81,1.97c0.42,0.43,0.8,0.98,0.9,1.58c0.09,0.54,0.07,1.35-0.27,1.8c-0.45,0.61-1.34,0.21-1.96,0.15
				c-0.5-0.05-1.33-0.27-1.7,0.16c-1.88,2.2-3.4,4.76-4.9,7.24c-1.63,2.71-3.26,5.41-5.64,7.54c-3.18,2.85-7.3,4.79-11.47,5.67
				c-3.49,0.74-7.06,1.15-10.61,1.47c-3.83,0.34-7.7,0.56-11.54,0.43c-1.39-0.05-2.79-0.13-4.15-0.4c-0.62-0.12-1.62-0.29-1.99-0.88
				c-0.14-0.23-0.12-0.46-0.03-0.7c0.08-0.2-0.87-0.39-1-0.09c-0.71,1.76,3.27,2.15,4.18,2.26c3.61,0.44,7.31,0.29,10.93,0.08
				c4-0.23,8.01-0.63,11.96-1.28c1.5-0.24,3-0.52,4.47-0.91c2.01-0.53,3.97-1.4,5.79-2.39c2.57-1.38,4.89-3.21,6.71-5.5
				c2.15-2.7,3.74-5.84,5.63-8.72c0.43-0.65,0.85-1.31,1.31-1.95c0.38-0.53,0.84-1.01,1.22-1.55c0.02-0.02,0.12-0.14,0.12-0.17
				c-0.01-0.09-0.37-0.07-0.19,0.02c0.16,0.08,0.47,0.04,0.65,0.05c0.4,0.03,0.79,0.12,1.19,0.17c0.71,0.09,1.62,0.1,2.05-0.59
				c0.58-0.95,0.29-2.3-0.34-3.14c-0.72-0.94-1.75-1.59-2.75-2.18c-0.96-0.57-1.91-1.17-2.95-1.6c-0.89-0.37-2.01-0.72-2.96-0.38
				c-0.98,0.35-1.65,1.51-1.08,2.46c0.57,0.96,1.69,1.46,2.28,2.4c0.57,0.92-0.29,2.13-0.67,2.97c-1.38,3.15-2.99,6.09-5.32,8.65
				c-4.5,4.95-10.57,8.15-17.04,9.67c-6.46,1.52-13.16,1.47-19.76,1.4c-1.64-0.02-3.29-0.04-4.93-0.04c-0.13,0-0.42,0.03-0.37,0.21
				C296.31,357.04,296.75,357.06,296.87,357.06L296.87,357.06z"/>
		</g>
	</g>
</g>
</svg>

